<svg xmlns="http://www.w3.org/2000/svg" viewBox="0 0 100 100">
  <defs>
    <linearGradient id="shieldGradient" x1="0%" y1="0%" x2="100%" y2="100%">
      <stop offset="0%" stop-color="#3b82f6" />
      <stop offset="100%" stop-color="#1d4ed8" />
    </linearGradient>
    <linearGradient id="checkGradient" x1="0%" y1="0%" x2="100%" y2="100%">
      <stop offset="0%" stop-color="#10b981" />
      <stop offset="100%" stop-color="#059669" />
    </linearGradient>
  </defs>
  
  <!-- Shield base -->
  <path d="M50 15 L85 25 L85 50 C85 70 70 85 50 95 C30 85 15 70 15 50 L15 25 Z" 
        fill="url(#shieldGradient)" 
        stroke="#1e40af" 
        stroke-width="2"/>
  
  <!-- Shield inner highlight -->
  <path d="M50 20 L80 30 L80 50 C80 67 67 80 50 88 C33 80 20 67 20 50 L20 30 Z" 
        fill="none" 
        stroke="rgba(255,255,255,0.2)" 
        stroke-width="1"/>
  
  <!-- Checkmark -->
  <path d="M35 50 L45 60 L65 40" 
        fill="none" 
        stroke="url(#checkGradient)" 
        stroke-width="4" 
        stroke-linecap="round" 
        stroke-linejoin="round"/>
  
  <!-- AI circuit elements -->
  <circle cx="30" cy="35" r="2" fill="rgba(255,255,255,0.6)" />
  <circle cx="70" cy="35" r="2" fill="rgba(255,255,255,0.6)" />
  <circle cx="50" cy="75" r="2" fill="rgba(255,255,255,0.6)" />
  <circle cx="30" cy="65" r="1.5" fill="rgba(255,255,255,0.4)" />
  <circle cx="70" cy="65" r="1.5" fill="rgba(255,255,255,0.4)" />
</svg>