<svg xmlns="http://www.w3.org/2000/svg" viewBox="0 0 100 100">
  <defs>
    <filter id="roughen">
      <feTurbulence type="fractalNoise" baseFrequency="0.04" numOctaves="2" result="noise"/>
      <feDisplacementMap in="SourceGraphic" in2="noise" scale="1" xChannelSelector="R" yChannelSelector="G"/>
    </filter>
    <linearGradient id="paperGradient" x1="0%" y1="0%" x2="100%" y2="100%">
      <stop offset="0%" stop-color="#f8f4e1"/>
      <stop offset="100%" stop-color="#f0e6d2"/>
    </linearGradient>
  </defs>
  
  <!-- Paper background with rough edges -->
  <path d="M15 20 L85 18 L87 82 L13 80 Z" 
        fill="url(#paperGradient)" 
        stroke="#8b7355" 
        stroke-width="1.5"
        filter="url(#roughen)"/>
  
  <!-- Handwritten "L" -->
  <path d="M30 25 L32 24 L31 26 L33 25 L32 27 L34 26 L33 28 L35 27 L34 29 L36 28 L35 30 
           L37 29 L36 31 L38 30 L37 32 L39 31 L38 33 L40 32 L39 34 L41 33 L40 35 L42 34 
           L41 36 L43 35 L42 37 L44 36 L43 38 L45 37 L44 39 L46 38 L45 40 L47 39 L46 41 
           L48 40 L47 42 L49 41 L48 43 L50 42 L49 44 L51 43 L50 45 L52 44 L51 46 L53 45 
           L52 47 L54 46 L53 48 L55 47 L54 49 L56 48 L55 50 L57 49 L56 51 L58 50 L57 52 
           L59 51 L58 53 L60 52 L59 54 L61 53 L60 55 L62 54 L61 56 L63 55 L62 57 L64 56 
           L63 58 L65 57 L64 59 L66 58 L65 60 L67 59 L66 61 L68 60 L67 62 L69 61 L68 63 
           L70 62 L69 64 L71 63 L70 65 L72 64 L71 66 L73 65 L72 67 L74 66 L73 68" 
        fill="none" 
        stroke="#2c1810" 
        stroke-width="2.5" 
        stroke-linecap="round" 
        stroke-linejoin="round"
        filter="url(#roughen)"/>
  
  <!-- Handwritten "A" -->
  <path d="M75 25 L73 26 L74 27 L72 28 L73 29 L71 30 L72 31 L70 32 L71 33 L69 34 
           L70 35 L68 36 L69 37 L67 38 L68 39 L66 40 L67 41 L65 42 L66 43 L64 44 
           L65 45 L63 46 L64 47 L62 48 L63 49 L61 50 L62 51 L60 52 L61 53 L59 54 
           L60 55 L58 56 L59 57 L57 58 L58 59 L56 60 L57 61 L55 62 L56 63 L54 64 
           L55 65 L53 66 L54 67 L52 68" 
        fill="none" 
        stroke="#2c1810" 
        stroke-width="2.5" 
        stroke-linecap="round" 
        stroke-linejoin="round"
        filter="url(#roughen)"/>
  
  <!-- Crossed lines for "X" effect -->
  <path d="M45 40 L65 60" 
        fill="none" 
        stroke="#8b7355" 
        stroke-width="1.5" 
        stroke-linecap="round"
        filter="url(#roughen)"/>
  <path d="M65 40 L45 60" 
        fill="none" 
        stroke="#8b7355" 
        stroke-width="1.5" 
        stroke-linecap="round"
        filter="url(#roughen)"/>
  
  <!-- Hand-drawn circle around part of the design -->
  <path d="M25 25 A 15 15 0 1 1 55 25 A 15 15 0 1 1 25 25" 
        fill="none" 
        stroke="#8b7355" 
        stroke-width="1" 
        stroke-dasharray="2,2"
        filter="url(#roughen)"/>
  
  <!-- Small decorative dots -->
  <circle cx="30" cy="70" r="1.5" fill="#8b7355" filter="url(#roughen)"/>
  <circle cx="70" cy="70" r="1.5" fill="#8b7355" filter="url(#roughen)"/>
  <circle cx="50" cy="75" r="1.5" fill="#8b7355" filter="url(#roughen)"/>
</svg>